<?xml version="1.0" standalone="no"?>
<svg xmlns="http://www.w3.org/2000/svg" width="452" height="452" xmlns:xlink="http://www.w3.org/1999/xlink" viewBox="0 0 452 452"><defs><clipPath id="clip-path-background-color-895"><rect x="0" y="0" width="452" height="452"/></clipPath><clipPath id="clip-path-dot-color-895"><rect x="115" y="11" width="13" height="13" transform="rotate(0,121.5,17.5)"/><rect x="128" y="11" width="13" height="13" transform="rotate(0,134.5,17.5)"/><rect x="154" y="11" width="13" height="13" transform="rotate(0,160.5,17.5)"/><rect x="167" y="11" width="13" height="13" transform="rotate(0,173.5,17.5)"/><rect x="180" y="11" width="13" height="13" transform="rotate(0,186.5,17.5)"/><rect x="219" y="11" width="13" height="13" transform="rotate(0,225.5,17.5)"/><rect x="245" y="11" width="13" height="13" transform="rotate(0,251.5,17.5)"/><rect x="258" y="11" width="13" height="13" transform="rotate(0,264.5,17.5)"/><rect x="297" y="11" width="13" height="13" transform="rotate(0,303.5,17.5)"/><rect x="310" y="11" width="13" height="13" transform="rotate(0,316.5,17.5)"/><rect x="115" y="24" width="13" height="13" transform="rotate(0,121.5,30.5)"/><rect x="180" y="24" width="13" height="13" transform="rotate(0,186.5,30.5)"/><rect x="219" y="24" width="13" height="13" transform="rotate(0,225.5,30.5)"/><rect x="232" y="24" width="13" height="13" transform="rotate(0,238.5,30.5)"/><rect x="258" y="24" width="13" height="13" transform="rotate(0,264.5,30.5)"/><rect x="271" y="24" width="13" height="13" transform="rotate(0,277.5,30.5)"/><rect x="284" y="24" width="13" height="13" transform="rotate(0,290.5,30.5)"/><rect x="310" y="24" width="13" height="13" transform="rotate(0,316.5,30.5)"/><rect x="323" y="24" width="13" height="13" transform="rotate(0,329.5,30.5)"/><rect x="115" y="37" width="13" height="13" transform="rotate(0,121.5,43.5)"/><rect x="193" y="37" width="13" height="13" transform="rotate(0,199.5,43.5)"/><rect x="206" y="37" width="13" height="13" transform="rotate(0,212.5,43.5)"/><rect x="219" y="37" width="13" height="13" transform="rotate(0,225.5,43.5)"/><rect x="115" y="50" width="13" height="13" transform="rotate(0,121.5,56.5)"/><rect x="128" y="50" width="13" height="13" transform="rotate(0,134.5,56.5)"/><rect x="167" y="50" width="13" height="13" transform="rotate(0,173.5,56.5)"/><rect x="193" y="50" width="13" height="13" transform="rotate(0,199.5,56.5)"/><rect x="219" y="50" width="13" height="13" transform="rotate(0,225.5,56.5)"/><rect x="232" y="50" width="13" height="13" transform="rotate(0,238.5,56.5)"/><rect x="258" y="50" width="13" height="13" transform="rotate(0,264.5,56.5)"/><rect x="297" y="50" width="13" height="13" transform="rotate(0,303.5,56.5)"/><rect x="310" y="50" width="13" height="13" transform="rotate(0,316.5,56.5)"/><rect x="115" y="63" width="13" height="13" transform="rotate(0,121.5,69.5)"/><rect x="128" y="63" width="13" height="13" transform="rotate(0,134.5,69.5)"/><rect x="141" y="63" width="13" height="13" transform="rotate(0,147.5,69.5)"/><rect x="154" y="63" width="13" height="13" transform="rotate(0,160.5,69.5)"/><rect x="167" y="63" width="13" height="13" transform="rotate(0,173.5,69.5)"/><rect x="219" y="63" width="13" height="13" transform="rotate(0,225.5,69.5)"/><rect x="284" y="63" width="13" height="13" transform="rotate(0,290.5,69.5)"/><rect x="297" y="63" width="13" height="13" transform="rotate(0,303.5,69.5)"/><rect x="310" y="63" width="13" height="13" transform="rotate(0,316.5,69.5)"/><rect x="141" y="76" width="13" height="13" transform="rotate(0,147.5,82.5)"/><rect x="154" y="76" width="13" height="13" transform="rotate(0,160.5,82.5)"/><rect x="167" y="76" width="13" height="13" transform="rotate(0,173.5,82.5)"/><rect x="180" y="76" width="13" height="13" transform="rotate(0,186.5,82.5)"/><rect x="219" y="76" width="13" height="13" transform="rotate(0,225.5,82.5)"/><rect x="297" y="76" width="13" height="13" transform="rotate(0,303.5,82.5)"/><rect x="310" y="76" width="13" height="13" transform="rotate(0,316.5,82.5)"/><rect x="323" y="76" width="13" height="13" transform="rotate(0,329.5,82.5)"/><rect x="115" y="89" width="13" height="13" transform="rotate(0,121.5,95.5)"/><rect x="141" y="89" width="13" height="13" transform="rotate(0,147.5,95.5)"/><rect x="167" y="89" width="13" height="13" transform="rotate(0,173.5,95.5)"/><rect x="193" y="89" width="13" height="13" transform="rotate(0,199.5,95.5)"/><rect x="219" y="89" width="13" height="13" transform="rotate(0,225.5,95.5)"/><rect x="245" y="89" width="13" height="13" transform="rotate(0,251.5,95.5)"/><rect x="271" y="89" width="13" height="13" transform="rotate(0,277.5,95.5)"/><rect x="297" y="89" width="13" height="13" transform="rotate(0,303.5,95.5)"/><rect x="323" y="89" width="13" height="13" transform="rotate(0,329.5,95.5)"/><rect x="115" y="102" width="13" height="13" transform="rotate(0,121.5,108.5)"/><rect x="128" y="102" width="13" height="13" transform="rotate(0,134.5,108.5)"/><rect x="167" y="102" width="13" height="13" transform="rotate(0,173.5,108.5)"/><rect x="180" y="102" width="13" height="13" transform="rotate(0,186.5,108.5)"/><rect x="193" y="102" width="13" height="13" transform="rotate(0,199.5,108.5)"/><rect x="206" y="102" width="13" height="13" transform="rotate(0,212.5,108.5)"/><rect x="232" y="102" width="13" height="13" transform="rotate(0,238.5,108.5)"/><rect x="271" y="102" width="13" height="13" transform="rotate(0,277.5,108.5)"/><rect x="284" y="102" width="13" height="13" transform="rotate(0,290.5,108.5)"/><rect x="310" y="102" width="13" height="13" transform="rotate(0,316.5,108.5)"/><rect x="323" y="102" width="13" height="13" transform="rotate(0,329.5,108.5)"/><rect x="24" y="115" width="13" height="13" transform="rotate(0,30.5,121.5)"/><rect x="37" y="115" width="13" height="13" transform="rotate(0,43.5,121.5)"/><rect x="63" y="115" width="13" height="13" transform="rotate(0,69.5,121.5)"/><rect x="89" y="115" width="13" height="13" transform="rotate(0,95.5,121.5)"/><rect x="102" y="115" width="13" height="13" transform="rotate(0,108.5,121.5)"/><rect x="128" y="115" width="13" height="13" transform="rotate(0,134.5,121.5)"/><rect x="141" y="115" width="13" height="13" transform="rotate(0,147.5,121.5)"/><rect x="167" y="115" width="13" height="13" transform="rotate(0,173.5,121.5)"/><rect x="206" y="115" width="13" height="13" transform="rotate(0,212.5,121.5)"/><rect x="219" y="115" width="13" height="13" transform="rotate(0,225.5,121.5)"/><rect x="232" y="115" width="13" height="13" transform="rotate(0,238.5,121.5)"/><rect x="245" y="115" width="13" height="13" transform="rotate(0,251.5,121.5)"/><rect x="258" y="115" width="13" height="13" transform="rotate(0,264.5,121.5)"/><rect x="284" y="115" width="13" height="13" transform="rotate(0,290.5,121.5)"/><rect x="323" y="115" width="13" height="13" transform="rotate(0,329.5,121.5)"/><rect x="349" y="115" width="13" height="13" transform="rotate(0,355.5,121.5)"/><rect x="375" y="115" width="13" height="13" transform="rotate(0,381.5,121.5)"/><rect x="388" y="115" width="13" height="13" transform="rotate(0,394.5,121.5)"/><rect x="401" y="115" width="13" height="13" transform="rotate(0,407.5,121.5)"/><rect x="414" y="115" width="13" height="13" transform="rotate(0,420.5,121.5)"/><rect x="427" y="115" width="13" height="13" transform="rotate(0,433.5,121.5)"/><rect x="50" y="128" width="13" height="13" transform="rotate(0,56.5,134.5)"/><rect x="63" y="128" width="13" height="13" transform="rotate(0,69.5,134.5)"/><rect x="115" y="128" width="13" height="13" transform="rotate(0,121.5,134.5)"/><rect x="128" y="128" width="13" height="13" transform="rotate(0,134.5,134.5)"/><rect x="141" y="128" width="13" height="13" transform="rotate(0,147.5,134.5)"/><rect x="206" y="128" width="13" height="13" transform="rotate(0,212.5,134.5)"/><rect x="219" y="128" width="13" height="13" transform="rotate(0,225.5,134.5)"/><rect x="271" y="128" width="13" height="13" transform="rotate(0,277.5,134.5)"/><rect x="284" y="128" width="13" height="13" transform="rotate(0,290.5,134.5)"/><rect x="297" y="128" width="13" height="13" transform="rotate(0,303.5,134.5)"/><rect x="323" y="128" width="13" height="13" transform="rotate(0,329.5,134.5)"/><rect x="336" y="128" width="13" height="13" transform="rotate(0,342.5,134.5)"/><rect x="349" y="128" width="13" height="13" transform="rotate(0,355.5,134.5)"/><rect x="362" y="128" width="13" height="13" transform="rotate(0,368.5,134.5)"/><rect x="414" y="128" width="13" height="13" transform="rotate(0,420.5,134.5)"/><rect x="427" y="128" width="13" height="13" transform="rotate(0,433.5,134.5)"/><rect x="24" y="141" width="13" height="13" transform="rotate(0,30.5,147.5)"/><rect x="63" y="141" width="13" height="13" transform="rotate(0,69.5,147.5)"/><rect x="76" y="141" width="13" height="13" transform="rotate(0,82.5,147.5)"/><rect x="89" y="141" width="13" height="13" transform="rotate(0,95.5,147.5)"/><rect x="128" y="141" width="13" height="13" transform="rotate(0,134.5,147.5)"/><rect x="167" y="141" width="13" height="13" transform="rotate(0,173.5,147.5)"/><rect x="180" y="141" width="13" height="13" transform="rotate(0,186.5,147.5)"/><rect x="206" y="141" width="13" height="13" transform="rotate(0,212.5,147.5)"/><rect x="232" y="141" width="13" height="13" transform="rotate(0,238.5,147.5)"/><rect x="271" y="141" width="13" height="13" transform="rotate(0,277.5,147.5)"/><rect x="284" y="141" width="13" height="13" transform="rotate(0,290.5,147.5)"/><rect x="336" y="141" width="13" height="13" transform="rotate(0,342.5,147.5)"/><rect x="349" y="141" width="13" height="13" transform="rotate(0,355.5,147.5)"/><rect x="362" y="141" width="13" height="13" transform="rotate(0,368.5,147.5)"/><rect x="401" y="141" width="13" height="13" transform="rotate(0,407.5,147.5)"/><rect x="427" y="141" width="13" height="13" transform="rotate(0,433.5,147.5)"/><rect x="11" y="154" width="13" height="13" transform="rotate(0,17.5,160.5)"/><rect x="50" y="154" width="13" height="13" transform="rotate(0,56.5,160.5)"/><rect x="102" y="154" width="13" height="13" transform="rotate(0,108.5,160.5)"/><rect x="128" y="154" width="13" height="13" transform="rotate(0,134.5,160.5)"/><rect x="154" y="154" width="13" height="13" transform="rotate(0,160.5,160.5)"/><rect x="167" y="154" width="13" height="13" transform="rotate(0,173.5,160.5)"/><rect x="193" y="154" width="13" height="13" transform="rotate(0,199.5,160.5)"/><rect x="206" y="154" width="13" height="13" transform="rotate(0,212.5,160.5)"/><rect x="258" y="154" width="13" height="13" transform="rotate(0,264.5,160.5)"/><rect x="284" y="154" width="13" height="13" transform="rotate(0,290.5,160.5)"/><rect x="297" y="154" width="13" height="13" transform="rotate(0,303.5,160.5)"/><rect x="375" y="154" width="13" height="13" transform="rotate(0,381.5,160.5)"/><rect x="427" y="154" width="13" height="13" transform="rotate(0,433.5,160.5)"/><rect x="11" y="167" width="13" height="13" transform="rotate(0,17.5,173.5)"/><rect x="24" y="167" width="13" height="13" transform="rotate(0,30.5,173.5)"/><rect x="76" y="167" width="13" height="13" transform="rotate(0,82.5,173.5)"/><rect x="89" y="167" width="13" height="13" transform="rotate(0,95.5,173.5)"/><rect x="115" y="167" width="13" height="13" transform="rotate(0,121.5,173.5)"/><rect x="141" y="167" width="13" height="13" transform="rotate(0,147.5,173.5)"/><rect x="154" y="167" width="13" height="13" transform="rotate(0,160.5,173.5)"/><rect x="167" y="167" width="13" height="13" transform="rotate(0,173.5,173.5)"/><rect x="180" y="167" width="13" height="13" transform="rotate(0,186.5,173.5)"/><rect x="193" y="167" width="13" height="13" transform="rotate(0,199.5,173.5)"/><rect x="219" y="167" width="13" height="13" transform="rotate(0,225.5,173.5)"/><rect x="258" y="167" width="13" height="13" transform="rotate(0,264.5,173.5)"/><rect x="271" y="167" width="13" height="13" transform="rotate(0,277.5,173.5)"/><rect x="284" y="167" width="13" height="13" transform="rotate(0,290.5,173.5)"/><rect x="336" y="167" width="13" height="13" transform="rotate(0,342.5,173.5)"/><rect x="349" y="167" width="13" height="13" transform="rotate(0,355.5,173.5)"/><rect x="388" y="167" width="13" height="13" transform="rotate(0,394.5,173.5)"/><rect x="414" y="167" width="13" height="13" transform="rotate(0,420.5,173.5)"/><rect x="24" y="180" width="13" height="13" transform="rotate(0,30.5,186.5)"/><rect x="37" y="180" width="13" height="13" transform="rotate(0,43.5,186.5)"/><rect x="50" y="180" width="13" height="13" transform="rotate(0,56.5,186.5)"/><rect x="76" y="180" width="13" height="13" transform="rotate(0,82.5,186.5)"/><rect x="102" y="180" width="13" height="13" transform="rotate(0,108.5,186.5)"/><rect x="141" y="180" width="13" height="13" transform="rotate(0,147.5,186.5)"/><rect x="167" y="180" width="13" height="13" transform="rotate(0,173.5,186.5)"/><rect x="193" y="180" width="13" height="13" transform="rotate(0,199.5,186.5)"/><rect x="258" y="180" width="13" height="13" transform="rotate(0,264.5,186.5)"/><rect x="323" y="180" width="13" height="13" transform="rotate(0,329.5,186.5)"/><rect x="336" y="180" width="13" height="13" transform="rotate(0,342.5,186.5)"/><rect x="349" y="180" width="13" height="13" transform="rotate(0,355.5,186.5)"/><rect x="401" y="180" width="13" height="13" transform="rotate(0,407.5,186.5)"/><rect x="427" y="180" width="13" height="13" transform="rotate(0,433.5,186.5)"/><rect x="37" y="193" width="13" height="13" transform="rotate(0,43.5,199.5)"/><rect x="50" y="193" width="13" height="13" transform="rotate(0,56.5,199.5)"/><rect x="89" y="193" width="13" height="13" transform="rotate(0,95.5,199.5)"/><rect x="115" y="193" width="13" height="13" transform="rotate(0,121.5,199.5)"/><rect x="154" y="193" width="13" height="13" transform="rotate(0,160.5,199.5)"/><rect x="167" y="193" width="13" height="13" transform="rotate(0,173.5,199.5)"/><rect x="180" y="193" width="13" height="13" transform="rotate(0,186.5,199.5)"/><rect x="193" y="193" width="13" height="13" transform="rotate(0,199.5,199.5)"/><rect x="206" y="193" width="13" height="13" transform="rotate(0,212.5,199.5)"/><rect x="219" y="193" width="13" height="13" transform="rotate(0,225.5,199.5)"/><rect x="232" y="193" width="13" height="13" transform="rotate(0,238.5,199.5)"/><rect x="245" y="193" width="13" height="13" transform="rotate(0,251.5,199.5)"/><rect x="297" y="193" width="13" height="13" transform="rotate(0,303.5,199.5)"/><rect x="336" y="193" width="13" height="13" transform="rotate(0,342.5,199.5)"/><rect x="388" y="193" width="13" height="13" transform="rotate(0,394.5,199.5)"/><rect x="414" y="193" width="13" height="13" transform="rotate(0,420.5,199.5)"/><rect x="427" y="193" width="13" height="13" transform="rotate(0,433.5,199.5)"/><rect x="11" y="206" width="13" height="13" transform="rotate(0,17.5,212.5)"/><rect x="24" y="206" width="13" height="13" transform="rotate(0,30.5,212.5)"/><rect x="50" y="206" width="13" height="13" transform="rotate(0,56.5,212.5)"/><rect x="102" y="206" width="13" height="13" transform="rotate(0,108.5,212.5)"/><rect x="115" y="206" width="13" height="13" transform="rotate(0,121.5,212.5)"/><rect x="141" y="206" width="13" height="13" transform="rotate(0,147.5,212.5)"/><rect x="154" y="206" width="13" height="13" transform="rotate(0,160.5,212.5)"/><rect x="180" y="206" width="13" height="13" transform="rotate(0,186.5,212.5)"/><rect x="206" y="206" width="13" height="13" transform="rotate(0,212.5,212.5)"/><rect x="219" y="206" width="13" height="13" transform="rotate(0,225.5,212.5)"/><rect x="232" y="206" width="13" height="13" transform="rotate(0,238.5,212.5)"/><rect x="245" y="206" width="13" height="13" transform="rotate(0,251.5,212.5)"/><rect x="271" y="206" width="13" height="13" transform="rotate(0,277.5,212.5)"/><rect x="284" y="206" width="13" height="13" transform="rotate(0,290.5,212.5)"/><rect x="310" y="206" width="13" height="13" transform="rotate(0,316.5,212.5)"/><rect x="349" y="206" width="13" height="13" transform="rotate(0,355.5,212.5)"/><rect x="362" y="206" width="13" height="13" transform="rotate(0,368.5,212.5)"/><rect x="375" y="206" width="13" height="13" transform="rotate(0,381.5,212.5)"/><rect x="414" y="206" width="13" height="13" transform="rotate(0,420.5,212.5)"/><rect x="11" y="219" width="13" height="13" transform="rotate(0,17.5,225.5)"/><rect x="63" y="219" width="13" height="13" transform="rotate(0,69.5,225.5)"/><rect x="89" y="219" width="13" height="13" transform="rotate(0,95.5,225.5)"/><rect x="102" y="219" width="13" height="13" transform="rotate(0,108.5,225.5)"/><rect x="128" y="219" width="13" height="13" transform="rotate(0,134.5,225.5)"/><rect x="167" y="219" width="13" height="13" transform="rotate(0,173.5,225.5)"/><rect x="193" y="219" width="13" height="13" transform="rotate(0,199.5,225.5)"/><rect x="219" y="219" width="13" height="13" transform="rotate(0,225.5,225.5)"/><rect x="258" y="219" width="13" height="13" transform="rotate(0,264.5,225.5)"/><rect x="271" y="219" width="13" height="13" transform="rotate(0,277.5,225.5)"/><rect x="284" y="219" width="13" height="13" transform="rotate(0,290.5,225.5)"/><rect x="297" y="219" width="13" height="13" transform="rotate(0,303.5,225.5)"/><rect x="336" y="219" width="13" height="13" transform="rotate(0,342.5,225.5)"/><rect x="349" y="219" width="13" height="13" transform="rotate(0,355.5,225.5)"/><rect x="388" y="219" width="13" height="13" transform="rotate(0,394.5,225.5)"/><rect x="401" y="219" width="13" height="13" transform="rotate(0,407.5,225.5)"/><rect x="11" y="232" width="13" height="13" transform="rotate(0,17.5,238.5)"/><rect x="24" y="232" width="13" height="13" transform="rotate(0,30.5,238.5)"/><rect x="37" y="232" width="13" height="13" transform="rotate(0,43.5,238.5)"/><rect x="50" y="232" width="13" height="13" transform="rotate(0,56.5,238.5)"/><rect x="102" y="232" width="13" height="13" transform="rotate(0,108.5,238.5)"/><rect x="141" y="232" width="13" height="13" transform="rotate(0,147.5,238.5)"/><rect x="167" y="232" width="13" height="13" transform="rotate(0,173.5,238.5)"/><rect x="180" y="232" width="13" height="13" transform="rotate(0,186.5,238.5)"/><rect x="206" y="232" width="13" height="13" transform="rotate(0,212.5,238.5)"/><rect x="232" y="232" width="13" height="13" transform="rotate(0,238.5,238.5)"/><rect x="271" y="232" width="13" height="13" transform="rotate(0,277.5,238.5)"/><rect x="323" y="232" width="13" height="13" transform="rotate(0,329.5,238.5)"/><rect x="349" y="232" width="13" height="13" transform="rotate(0,355.5,238.5)"/><rect x="362" y="232" width="13" height="13" transform="rotate(0,368.5,238.5)"/><rect x="414" y="232" width="13" height="13" transform="rotate(0,420.5,238.5)"/><rect x="427" y="232" width="13" height="13" transform="rotate(0,433.5,238.5)"/><rect x="11" y="245" width="13" height="13" transform="rotate(0,17.5,251.5)"/><rect x="37" y="245" width="13" height="13" transform="rotate(0,43.5,251.5)"/><rect x="50" y="245" width="13" height="13" transform="rotate(0,56.5,251.5)"/><rect x="63" y="245" width="13" height="13" transform="rotate(0,69.5,251.5)"/><rect x="89" y="245" width="13" height="13" transform="rotate(0,95.5,251.5)"/><rect x="115" y="245" width="13" height="13" transform="rotate(0,121.5,251.5)"/><rect x="128" y="245" width="13" height="13" transform="rotate(0,134.5,251.5)"/><rect x="141" y="245" width="13" height="13" transform="rotate(0,147.5,251.5)"/><rect x="180" y="245" width="13" height="13" transform="rotate(0,186.5,251.5)"/><rect x="206" y="245" width="13" height="13" transform="rotate(0,212.5,251.5)"/><rect x="219" y="245" width="13" height="13" transform="rotate(0,225.5,251.5)"/><rect x="232" y="245" width="13" height="13" transform="rotate(0,238.5,251.5)"/><rect x="245" y="245" width="13" height="13" transform="rotate(0,251.5,251.5)"/><rect x="271" y="245" width="13" height="13" transform="rotate(0,277.5,251.5)"/><rect x="323" y="245" width="13" height="13" transform="rotate(0,329.5,251.5)"/><rect x="349" y="245" width="13" height="13" transform="rotate(0,355.5,251.5)"/><rect x="401" y="245" width="13" height="13" transform="rotate(0,407.5,251.5)"/><rect x="414" y="245" width="13" height="13" transform="rotate(0,420.5,251.5)"/><rect x="427" y="245" width="13" height="13" transform="rotate(0,433.5,251.5)"/><rect x="11" y="258" width="13" height="13" transform="rotate(0,17.5,264.5)"/><rect x="37" y="258" width="13" height="13" transform="rotate(0,43.5,264.5)"/><rect x="50" y="258" width="13" height="13" transform="rotate(0,56.5,264.5)"/><rect x="63" y="258" width="13" height="13" transform="rotate(0,69.5,264.5)"/><rect x="115" y="258" width="13" height="13" transform="rotate(0,121.5,264.5)"/><rect x="141" y="258" width="13" height="13" transform="rotate(0,147.5,264.5)"/><rect x="193" y="258" width="13" height="13" transform="rotate(0,199.5,264.5)"/><rect x="232" y="258" width="13" height="13" transform="rotate(0,238.5,264.5)"/><rect x="245" y="258" width="13" height="13" transform="rotate(0,251.5,264.5)"/><rect x="258" y="258" width="13" height="13" transform="rotate(0,264.5,264.5)"/><rect x="271" y="258" width="13" height="13" transform="rotate(0,277.5,264.5)"/><rect x="284" y="258" width="13" height="13" transform="rotate(0,290.5,264.5)"/><rect x="297" y="258" width="13" height="13" transform="rotate(0,303.5,264.5)"/><rect x="323" y="258" width="13" height="13" transform="rotate(0,329.5,264.5)"/><rect x="349" y="258" width="13" height="13" transform="rotate(0,355.5,264.5)"/><rect x="362" y="258" width="13" height="13" transform="rotate(0,368.5,264.5)"/><rect x="375" y="258" width="13" height="13" transform="rotate(0,381.5,264.5)"/><rect x="11" y="271" width="13" height="13" transform="rotate(0,17.5,277.5)"/><rect x="50" y="271" width="13" height="13" transform="rotate(0,56.5,277.5)"/><rect x="63" y="271" width="13" height="13" transform="rotate(0,69.5,277.5)"/><rect x="76" y="271" width="13" height="13" transform="rotate(0,82.5,277.5)"/><rect x="89" y="271" width="13" height="13" transform="rotate(0,95.5,277.5)"/><rect x="115" y="271" width="13" height="13" transform="rotate(0,121.5,277.5)"/><rect x="128" y="271" width="13" height="13" transform="rotate(0,134.5,277.5)"/><rect x="167" y="271" width="13" height="13" transform="rotate(0,173.5,277.5)"/><rect x="180" y="271" width="13" height="13" transform="rotate(0,186.5,277.5)"/><rect x="206" y="271" width="13" height="13" transform="rotate(0,212.5,277.5)"/><rect x="232" y="271" width="13" height="13" transform="rotate(0,238.5,277.5)"/><rect x="245" y="271" width="13" height="13" transform="rotate(0,251.5,277.5)"/><rect x="271" y="271" width="13" height="13" transform="rotate(0,277.5,277.5)"/><rect x="284" y="271" width="13" height="13" transform="rotate(0,290.5,277.5)"/><rect x="310" y="271" width="13" height="13" transform="rotate(0,316.5,277.5)"/><rect x="336" y="271" width="13" height="13" transform="rotate(0,342.5,277.5)"/><rect x="349" y="271" width="13" height="13" transform="rotate(0,355.5,277.5)"/><rect x="388" y="271" width="13" height="13" transform="rotate(0,394.5,277.5)"/><rect x="63" y="284" width="13" height="13" transform="rotate(0,69.5,290.5)"/><rect x="115" y="284" width="13" height="13" transform="rotate(0,121.5,290.5)"/><rect x="128" y="284" width="13" height="13" transform="rotate(0,134.5,290.5)"/><rect x="167" y="284" width="13" height="13" transform="rotate(0,173.5,290.5)"/><rect x="180" y="284" width="13" height="13" transform="rotate(0,186.5,290.5)"/><rect x="219" y="284" width="13" height="13" transform="rotate(0,225.5,290.5)"/><rect x="232" y="284" width="13" height="13" transform="rotate(0,238.5,290.5)"/><rect x="310" y="284" width="13" height="13" transform="rotate(0,316.5,290.5)"/><rect x="323" y="284" width="13" height="13" transform="rotate(0,329.5,290.5)"/><rect x="349" y="284" width="13" height="13" transform="rotate(0,355.5,290.5)"/><rect x="388" y="284" width="13" height="13" transform="rotate(0,394.5,290.5)"/><rect x="414" y="284" width="13" height="13" transform="rotate(0,420.5,290.5)"/><rect x="427" y="284" width="13" height="13" transform="rotate(0,433.5,290.5)"/><rect x="11" y="297" width="13" height="13" transform="rotate(0,17.5,303.5)"/><rect x="37" y="297" width="13" height="13" transform="rotate(0,43.5,303.5)"/><rect x="63" y="297" width="13" height="13" transform="rotate(0,69.5,303.5)"/><rect x="76" y="297" width="13" height="13" transform="rotate(0,82.5,303.5)"/><rect x="89" y="297" width="13" height="13" transform="rotate(0,95.5,303.5)"/><rect x="128" y="297" width="13" height="13" transform="rotate(0,134.5,303.5)"/><rect x="193" y="297" width="13" height="13" transform="rotate(0,199.5,303.5)"/><rect x="284" y="297" width="13" height="13" transform="rotate(0,290.5,303.5)"/><rect x="362" y="297" width="13" height="13" transform="rotate(0,368.5,303.5)"/><rect x="401" y="297" width="13" height="13" transform="rotate(0,407.5,303.5)"/><rect x="414" y="297" width="13" height="13" transform="rotate(0,420.5,303.5)"/><rect x="427" y="297" width="13" height="13" transform="rotate(0,433.5,303.5)"/><rect x="24" y="310" width="13" height="13" transform="rotate(0,30.5,316.5)"/><rect x="37" y="310" width="13" height="13" transform="rotate(0,43.5,316.5)"/><rect x="50" y="310" width="13" height="13" transform="rotate(0,56.5,316.5)"/><rect x="63" y="310" width="13" height="13" transform="rotate(0,69.5,316.5)"/><rect x="193" y="310" width="13" height="13" transform="rotate(0,199.5,316.5)"/><rect x="219" y="310" width="13" height="13" transform="rotate(0,225.5,316.5)"/><rect x="245" y="310" width="13" height="13" transform="rotate(0,251.5,316.5)"/><rect x="258" y="310" width="13" height="13" transform="rotate(0,264.5,316.5)"/><rect x="271" y="310" width="13" height="13" transform="rotate(0,277.5,316.5)"/><rect x="284" y="310" width="13" height="13" transform="rotate(0,290.5,316.5)"/><rect x="323" y="310" width="13" height="13" transform="rotate(0,329.5,316.5)"/><rect x="336" y="310" width="13" height="13" transform="rotate(0,342.5,316.5)"/><rect x="375" y="310" width="13" height="13" transform="rotate(0,381.5,316.5)"/><rect x="427" y="310" width="13" height="13" transform="rotate(0,433.5,316.5)"/><rect x="11" y="323" width="13" height="13" transform="rotate(0,17.5,329.5)"/><rect x="50" y="323" width="13" height="13" transform="rotate(0,56.5,329.5)"/><rect x="63" y="323" width="13" height="13" transform="rotate(0,69.5,329.5)"/><rect x="76" y="323" width="13" height="13" transform="rotate(0,82.5,329.5)"/><rect x="89" y="323" width="13" height="13" transform="rotate(0,95.5,329.5)"/><rect x="102" y="323" width="13" height="13" transform="rotate(0,108.5,329.5)"/><rect x="115" y="323" width="13" height="13" transform="rotate(0,121.5,329.5)"/><rect x="141" y="323" width="13" height="13" transform="rotate(0,147.5,329.5)"/><rect x="154" y="323" width="13" height="13" transform="rotate(0,160.5,329.5)"/><rect x="167" y="323" width="13" height="13" transform="rotate(0,173.5,329.5)"/><rect x="193" y="323" width="13" height="13" transform="rotate(0,199.5,329.5)"/><rect x="219" y="323" width="13" height="13" transform="rotate(0,225.5,329.5)"/><rect x="245" y="323" width="13" height="13" transform="rotate(0,251.5,329.5)"/><rect x="284" y="323" width="13" height="13" transform="rotate(0,290.5,329.5)"/><rect x="310" y="323" width="13" height="13" transform="rotate(0,316.5,329.5)"/><rect x="323" y="323" width="13" height="13" transform="rotate(0,329.5,329.5)"/><rect x="336" y="323" width="13" height="13" transform="rotate(0,342.5,329.5)"/><rect x="349" y="323" width="13" height="13" transform="rotate(0,355.5,329.5)"/><rect x="362" y="323" width="13" height="13" transform="rotate(0,368.5,329.5)"/><rect x="375" y="323" width="13" height="13" transform="rotate(0,381.5,329.5)"/><rect x="388" y="323" width="13" height="13" transform="rotate(0,394.5,329.5)"/><rect x="115" y="336" width="13" height="13" transform="rotate(0,121.5,342.5)"/><rect x="154" y="336" width="13" height="13" transform="rotate(0,160.5,342.5)"/><rect x="167" y="336" width="13" height="13" transform="rotate(0,173.5,342.5)"/><rect x="206" y="336" width="13" height="13" transform="rotate(0,212.5,342.5)"/><rect x="271" y="336" width="13" height="13" transform="rotate(0,277.5,342.5)"/><rect x="310" y="336" width="13" height="13" transform="rotate(0,316.5,342.5)"/><rect x="323" y="336" width="13" height="13" transform="rotate(0,329.5,342.5)"/><rect x="375" y="336" width="13" height="13" transform="rotate(0,381.5,342.5)"/><rect x="388" y="336" width="13" height="13" transform="rotate(0,394.5,342.5)"/><rect x="414" y="336" width="13" height="13" transform="rotate(0,420.5,342.5)"/><rect x="427" y="336" width="13" height="13" transform="rotate(0,433.5,342.5)"/><rect x="115" y="349" width="13" height="13" transform="rotate(0,121.5,355.5)"/><rect x="128" y="349" width="13" height="13" transform="rotate(0,134.5,355.5)"/><rect x="154" y="349" width="13" height="13" transform="rotate(0,160.5,355.5)"/><rect x="193" y="349" width="13" height="13" transform="rotate(0,199.5,355.5)"/><rect x="206" y="349" width="13" height="13" transform="rotate(0,212.5,355.5)"/><rect x="232" y="349" width="13" height="13" transform="rotate(0,238.5,355.5)"/><rect x="297" y="349" width="13" height="13" transform="rotate(0,303.5,355.5)"/><rect x="310" y="349" width="13" height="13" transform="rotate(0,316.5,355.5)"/><rect x="323" y="349" width="13" height="13" transform="rotate(0,329.5,355.5)"/><rect x="349" y="349" width="13" height="13" transform="rotate(0,355.5,355.5)"/><rect x="375" y="349" width="13" height="13" transform="rotate(0,381.5,355.5)"/><rect x="401" y="349" width="13" height="13" transform="rotate(0,407.5,355.5)"/><rect x="414" y="349" width="13" height="13" transform="rotate(0,420.5,355.5)"/><rect x="427" y="349" width="13" height="13" transform="rotate(0,433.5,355.5)"/><rect x="180" y="362" width="13" height="13" transform="rotate(0,186.5,368.5)"/><rect x="206" y="362" width="13" height="13" transform="rotate(0,212.5,368.5)"/><rect x="219" y="362" width="13" height="13" transform="rotate(0,225.5,368.5)"/><rect x="232" y="362" width="13" height="13" transform="rotate(0,238.5,368.5)"/><rect x="258" y="362" width="13" height="13" transform="rotate(0,264.5,368.5)"/><rect x="284" y="362" width="13" height="13" transform="rotate(0,290.5,368.5)"/><rect x="297" y="362" width="13" height="13" transform="rotate(0,303.5,368.5)"/><rect x="323" y="362" width="13" height="13" transform="rotate(0,329.5,368.5)"/><rect x="375" y="362" width="13" height="13" transform="rotate(0,381.5,368.5)"/><rect x="414" y="362" width="13" height="13" transform="rotate(0,420.5,368.5)"/><rect x="427" y="362" width="13" height="13" transform="rotate(0,433.5,368.5)"/><rect x="115" y="375" width="13" height="13" transform="rotate(0,121.5,381.5)"/><rect x="128" y="375" width="13" height="13" transform="rotate(0,134.5,381.5)"/><rect x="167" y="375" width="13" height="13" transform="rotate(0,173.5,381.5)"/><rect x="193" y="375" width="13" height="13" transform="rotate(0,199.5,381.5)"/><rect x="258" y="375" width="13" height="13" transform="rotate(0,264.5,381.5)"/><rect x="271" y="375" width="13" height="13" transform="rotate(0,277.5,381.5)"/><rect x="284" y="375" width="13" height="13" transform="rotate(0,290.5,381.5)"/><rect x="323" y="375" width="13" height="13" transform="rotate(0,329.5,381.5)"/><rect x="336" y="375" width="13" height="13" transform="rotate(0,342.5,381.5)"/><rect x="349" y="375" width="13" height="13" transform="rotate(0,355.5,381.5)"/><rect x="362" y="375" width="13" height="13" transform="rotate(0,368.5,381.5)"/><rect x="375" y="375" width="13" height="13" transform="rotate(0,381.5,381.5)"/><rect x="388" y="375" width="13" height="13" transform="rotate(0,394.5,381.5)"/><rect x="414" y="375" width="13" height="13" transform="rotate(0,420.5,381.5)"/><rect x="141" y="388" width="13" height="13" transform="rotate(0,147.5,394.5)"/><rect x="180" y="388" width="13" height="13" transform="rotate(0,186.5,394.5)"/><rect x="206" y="388" width="13" height="13" transform="rotate(0,212.5,394.5)"/><rect x="219" y="388" width="13" height="13" transform="rotate(0,225.5,394.5)"/><rect x="232" y="388" width="13" height="13" transform="rotate(0,238.5,394.5)"/><rect x="245" y="388" width="13" height="13" transform="rotate(0,251.5,394.5)"/><rect x="271" y="388" width="13" height="13" transform="rotate(0,277.5,394.5)"/><rect x="284" y="388" width="13" height="13" transform="rotate(0,290.5,394.5)"/><rect x="297" y="388" width="13" height="13" transform="rotate(0,303.5,394.5)"/><rect x="375" y="388" width="13" height="13" transform="rotate(0,381.5,394.5)"/><rect x="388" y="388" width="13" height="13" transform="rotate(0,394.5,394.5)"/><rect x="414" y="388" width="13" height="13" transform="rotate(0,420.5,394.5)"/><rect x="427" y="388" width="13" height="13" transform="rotate(0,433.5,394.5)"/><rect x="115" y="401" width="13" height="13" transform="rotate(0,121.5,407.5)"/><rect x="141" y="401" width="13" height="13" transform="rotate(0,147.5,407.5)"/><rect x="167" y="401" width="13" height="13" transform="rotate(0,173.5,407.5)"/><rect x="180" y="401" width="13" height="13" transform="rotate(0,186.5,407.5)"/><rect x="271" y="401" width="13" height="13" transform="rotate(0,277.5,407.5)"/><rect x="284" y="401" width="13" height="13" transform="rotate(0,290.5,407.5)"/><rect x="310" y="401" width="13" height="13" transform="rotate(0,316.5,407.5)"/><rect x="323" y="401" width="13" height="13" transform="rotate(0,329.5,407.5)"/><rect x="375" y="401" width="13" height="13" transform="rotate(0,381.5,407.5)"/><rect x="427" y="401" width="13" height="13" transform="rotate(0,433.5,407.5)"/><rect x="115" y="414" width="13" height="13" transform="rotate(0,121.5,420.5)"/><rect x="154" y="414" width="13" height="13" transform="rotate(0,160.5,420.5)"/><rect x="193" y="414" width="13" height="13" transform="rotate(0,199.5,420.5)"/><rect x="219" y="414" width="13" height="13" transform="rotate(0,225.5,420.5)"/><rect x="245" y="414" width="13" height="13" transform="rotate(0,251.5,420.5)"/><rect x="284" y="414" width="13" height="13" transform="rotate(0,290.5,420.5)"/><rect x="297" y="414" width="13" height="13" transform="rotate(0,303.5,420.5)"/><rect x="375" y="414" width="13" height="13" transform="rotate(0,381.5,420.5)"/><rect x="414" y="414" width="13" height="13" transform="rotate(0,420.5,420.5)"/><rect x="128" y="427" width="13" height="13" transform="rotate(0,134.5,433.5)"/><rect x="141" y="427" width="13" height="13" transform="rotate(0,147.5,433.5)"/><rect x="154" y="427" width="13" height="13" transform="rotate(0,160.5,433.5)"/><rect x="193" y="427" width="13" height="13" transform="rotate(0,199.5,433.5)"/><rect x="219" y="427" width="13" height="13" transform="rotate(0,225.5,433.5)"/><rect x="245" y="427" width="13" height="13" transform="rotate(0,251.5,433.5)"/><rect x="271" y="427" width="13" height="13" transform="rotate(0,277.5,433.5)"/><rect x="284" y="427" width="13" height="13" transform="rotate(0,290.5,433.5)"/><rect x="310" y="427" width="13" height="13" transform="rotate(0,316.5,433.5)"/><rect x="323" y="427" width="13" height="13" transform="rotate(0,329.5,433.5)"/><rect x="349" y="427" width="13" height="13" transform="rotate(0,355.5,433.5)"/><rect x="375" y="427" width="13" height="13" transform="rotate(0,381.5,433.5)"/><rect x="414" y="427" width="13" height="13" transform="rotate(0,420.5,433.5)"/><rect x="427" y="427" width="13" height="13" transform="rotate(0,433.5,433.5)"/></clipPath><clipPath id="clip-path-corners-square-color-0-0-895"><path clip-rule="evenodd" d="M 11 11v 91h 91v -91zM 24 24h 65v 65h -65z" transform="rotate(0,56.5,56.5)"/></clipPath><clipPath id="clip-path-corners-dot-color-0-0-895"><rect x="37" y="37" width="39" height="39" transform="rotate(0,56.5,56.5)"/></clipPath><clipPath id="clip-path-corners-square-color-1-0-895"><path clip-rule="evenodd" d="M 349 11v 91h 91v -91zM 362 24h 65v 65h -65z" transform="rotate(90,394.5,56.5)"/></clipPath><clipPath id="clip-path-corners-dot-color-1-0-895"><rect x="375" y="37" width="39" height="39" transform="rotate(90,394.5,56.5)"/></clipPath><clipPath id="clip-path-corners-square-color-0-1-895"><path clip-rule="evenodd" d="M 11 349v 91h 91v -91zM 24 362h 65v 65h -65z" transform="rotate(-90,56.5,394.5)"/></clipPath><clipPath id="clip-path-corners-dot-color-0-1-895"><rect x="37" y="375" width="39" height="39" transform="rotate(-90,56.5,394.5)"/></clipPath></defs><rect x="0" y="0" height="452" width="452" clip-path="url('#clip-path-background-color-895')" fill="#FFFFFF"/><rect x="0" y="0" height="452" width="452" clip-path="url('#clip-path-dot-color-895')" fill="#000000"/><rect x="11" y="11" height="91" width="91" clip-path="url('#clip-path-corners-square-color-0-0-895')" fill="#000000"/><rect x="37" y="37" height="39" width="39" clip-path="url('#clip-path-corners-dot-color-0-0-895')" fill="#000000"/><rect x="349" y="11" height="91" width="91" clip-path="url('#clip-path-corners-square-color-1-0-895')" fill="#000000"/><rect x="375" y="37" height="39" width="39" clip-path="url('#clip-path-corners-dot-color-1-0-895')" fill="#000000"/><rect x="11" y="349" height="91" width="91" clip-path="url('#clip-path-corners-square-color-0-1-895')" fill="#000000"/><rect x="37" y="375" height="39" width="39" clip-path="url('#clip-path-corners-dot-color-0-1-895')" fill="#000000"/></svg>