<?xml version="1.0" encoding="UTF-8" standalone="no"?>
<!-- Created with Inkscape (http://www.inkscape.org/) -->

<svg
   version="1.1"
   id="svg1"
   width="1954.3979"
   height="2674.0105"
   viewBox="0 0 1954.3979 2674.0105"
   xmlns="http://www.w3.org/2000/svg"
   xmlns:svg="http://www.w3.org/2000/svg">
  <defs
     id="defs1" />
  <g
     id="g1"
     style="display:inline"
     transform="translate(-5149.7784,-286.72583)">
    <path
       style="display:inline;fill:#FFFFFF;stroke:none"
       d="m 6269.6256,1560.0689 c 28.0219,-22.2228 58.2102,-42.1348 87.4,-62.7958 11.8428,-8.3825 26.1946,-15.9813 36.4674,-26.2511 22.7674,-22.7606 38.952,-58.6806 56.3892,-85.7531 22.3256,-34.6621 44.6424,-69.3419 67.1793,-103.8667 6.9116,-10.5881 15.5746,-32.619 27.4816,-37.8309 15.1144,-6.6156 33.3451,-8.8951 49.3491,-12.6892 31.6879,-7.5122 63.313,-15.288 95,-22.8 92.4492,-21.917 184.7954,-44.3204 277.4,-65.5715 33.4063,-7.6662 66.6576,-16.0167 100.0667,-23.6835 8.175,-1.8761 27.8332,-9.9526 35.064,-3.8606 8.6559,7.2927 -5.5183,24.1231 -9.3749,30.9023 -16.604,29.1867 -33.4864,58.2225 -50.1116,87.4 -50.2227,88.1419 -101.9209,175.4538 -152.3771,263.4667 -14.7748,25.7723 -30.178,51.2283 -44.4799,77.2667 -6.6311,12.0728 -13.3858,30.5803 -23.8429,39.7064 -5.003,4.3662 -13.3521,4.072 -19.6109,4.8235 -12.6769,1.5219 -25.3629,3.3922 -38,5.2132 -52.2862,7.5341 -104.6814,14.7227 -157.0667,21.5469 -22.8215,2.973 -45.5813,6.4195 -68.4,9.42 -10.9245,1.4364 -23.7928,1.3034 -34.2,5.0275 -23.3081,8.3406 -46.1091,28.5653 -67.1333,41.6593 -36.261,22.5838 -78.6208,43.0125 -111.4667,70.2032 34.3358,14.8147 67.0278,40.4751 98.8,60.2635 60.2483,37.5237 120.9719,74.2809 181.1333,111.9396 20.1456,12.6104 40.4491,25.0264 60.8,37.3022 16.3249,9.8473 32.5946,18.5131 41.4579,36.2281 10.4009,20.7883 14.0038,47.9477 15.5734,70.9333 0.5127,7.5085 2.5444,15.3767 0.2171,22.8 -3.5206,11.229 -16.3694,20.5342 -23.9534,29.1333 -14.0635,15.9461 -28.957,31.111 -43.2132,46.8667 -8.5792,9.4816 -17.3428,22.1481 -28.0827,29.1763 -12.502,8.1812 -28.188,13.208 -41.7991,19.3441 -28.6077,12.8967 -57.5274,25.106 -86.1333,38 -28.8488,13.0034 -60.4244,31.5697 -91.2,38.8796 v 1.2667 c 20.9809,4.8539 41.9406,14.1297 62.0667,21.7767 9.3103,3.5374 21.3462,6.2705 28.8635,13.0937 12.4618,11.3113 18.7149,36.0836 25.4263,51.2629 9.6979,21.9343 25.9761,47.9478 27.9252,72.2 1.141,14.1954 -6.4717,24.691 -12.8259,36.7333 -9.7392,18.4575 -19.2084,37.0643 -28.543,55.7334 -4.5638,9.1277 -9.2696,23.0741 -17.0493,29.8556 -8.2849,7.2219 -24.8549,9.076 -35.1968,12.3803 -28.9288,9.243 -59.89,22.9937 -89.9333,27.4308 v 1.2666 c 14.0324,3.3253 37.7049,10.7501 47.326,21.9459 11.7188,13.6368 16.593,39.7231 22.3445,56.5875 4.2929,12.5878 13.144,28.132 11.1254,41.8 -2.2428,15.187 -15.3318,32.2984 -22.7051,45.6 -6.4292,11.5982 -11.2305,29.116 -22.6437,36.7763 -21.2109,14.2364 -49.9096,22.2842 -73.4471,32.1611 -45.2865,19.0034 -90.1822,38.8854 -135.5333,57.7438 -17.879,7.4345 -35.4553,15.6029 -53.2,23.3229 -7.1407,3.1067 -16.1253,9.3299 -24.0667,9.3299 -11.3242,0 -24.3959,-10.9503 -34.2,-15.8871 -27.2998,-13.7463 -54.1841,-28.4505 -81.0667,-42.9894 -33.4971,-18.1162 -67.2793,-36.2379 -101.3333,-53.2782 -15.0156,-7.5134 -39.0741,-15.5458 -50.136,-28.4137 -5.218,-6.0702 -6.6321,-16.2728 -8.6008,-23.8323 -3.6447,-13.9955 -7.8365,-27.8936 -11.8281,-41.8 -3.8497,-13.4123 -14.3621,-35.5922 -11.8202,-49.4 4.5951,-24.9609 29.5382,-47.5659 39.3184,-70.9333 -18.0796,-3.1132 -36.0261,-13.7797 -53.1999,-20.2032 -10.2708,-3.8416 -24.4097,-7.0794 -32.6988,-14.4913 -13.4522,-12.029 -19.4748,-35.5494 -27.162,-51.4389 -7.4883,-15.4782 -14.0623,-31.3851 -21.5333,-46.8667 -4.9038,-10.1617 -12.9274,-22.9515 -14.4064,-34.2 -2.3268,-17.6953 6.5811,-40.7253 9.5645,-58.2666 2.1517,-12.6518 2.5081,-34.8926 9.9046,-45.4671 5.7711,-8.2509 21.6725,-11.5765 30.7314,-14.9294 24.0009,-8.883 47.5224,-21.5208 72.2,-28.2702 v -1.2667 c -17.0435,-2.5528 -34.3808,-11.6436 -50.6667,-17.2974 -35.5322,-12.3355 -70.9658,-24.9479 -106.4,-37.5592 -23.3914,-8.3252 -54.3977,-13.74 -73.4481,-30.3912 -13.116,-11.464 -21.135,-29.6771 -28.2762,-45.2188 -10.5942,-23.0567 -20.5814,-46.3218 -30.5427,-69.6667 -5.3841,-12.6181 -16.26,-29.0403 -15.7649,-43.0667 0.3625,-10.2684 6.7893,-21.0939 10.6944,-30.4 9.1271,-21.7506 17.1142,-45.4086 31.1388,-64.6 23.9644,-32.7932 73.1891,-50.816 107.4654,-70.9469 54.7154,-32.1354 109.7855,-63.672 164.6666,-95.524 26.3451,-15.2903 52.204,-33.4436 79.8,-46.3291 -39.3554,-26.5281 -80.1052,-51.3509 -120.3333,-76.5376 -16.6328,-10.4138 -36.2488,-28.7094 -55.7333,-32.4778 -72.8365,-14.0874 -148.1678,-19.9352 -221.6667,-30.1528 -20.6971,-2.8772 -41.3168,-6.3442 -62.0666,-8.8353 -8.1318,-0.9763 -20.754,-0.4912 -27.7347,-5.0833 -7.0701,-4.6509 -11.0447,-15.8411 -15.1424,-22.9799 l -31.8563,-55.7333 c -38.1283,-66.3428 -75.7548,-133.0384 -114.7643,-198.8667 -32.5483,-54.9253 -64.3022,-110.4304 -95.8581,-165.9333 l -21.7102,-38 c -2.9474,-5.1859 -7.2436,-11.8817 -2.5979,-17.4391 4.1944,-5.0174 10.393,-2.7161 15.7972,-1.5609 12.7009,2.7148 25.3088,5.8569 38,8.6007 54.7068,11.8274 108.7521,26.8579 163.4,38.995 81.7241,18.1506 163.1875,38.2717 244.4666,58.3302 21.4456,5.2924 43.0114,10.7395 64.6,15.4081 9.9253,2.1465 25.7082,3.9905 33.9655,10.0544 6.2737,4.6071 10.3331,14.1961 14.5891,20.6116 11.0946,16.7239 21.8263,33.7211 32.5795,50.6667 25.3272,39.9117 50.9784,79.7353 77.1993,119.0666 10.7841,16.1762 20.0961,34.2699 32.3224,49.3815 9.4305,11.656 26.0595,18.8099 38.6109,26.6821 25.1418,15.7685 50.0427,32.406 76,46.8031 0,-17.8734 4.4083,-42.4058 -0.65,-59.5333 -2.5976,-8.7957 -11.1051,-17.7691 -16.2526,-25.3334 -12.7709,-18.7671 -26.026,-37.2467 -39.1992,-55.7333 -40.0844,-56.2524 -78.8132,-113.4683 -118.8771,-169.7334 -19.3788,-27.2152 -38.4552,-54.7168 -57.257,-82.3333 -5.4573,-8.0158 -19.5823,-21.3162 -17.8379,-31.6667 1.2688,-7.5285 6.51,-14.6378 9.5831,-21.5333 7.1949,-16.144 14.859,-32.0715 22.2331,-48.1334 l 64.6,-140.59991 c 66.8485,-145.6056 133.4302,-291.32376 200.1333,-437.00002 23.1748,-50.61255 46.2993,-101.24984 69.1779,-152.00001 5.3353,-11.8348 10.928,-23.54868 16.0797,-35.46667 2.0569,-4.75835 4.3168,-11.77078 10.1871,-12.86706 5.4164,-1.01154 8.8152,3.54333 10.9357,7.80627 5.7535,11.56668 10.994,23.61393 16.1481,35.46079 21.8224,50.16044 44.9218,99.93958 68.141,149.46668 72.3313,154.28502 141.9748,309.93891 212.9124,464.86669 l 62.0667,135.53324 c 7.1245,15.5186 24.8276,39.7849 24.6725,57.0001 -0.099,10.9389 -13.7416,24.4003 -19.818,32.9333 -17.9376,25.1895 -35.2633,50.8094 -53.2,76 -40.3618,56.6852 -79.3206,114.3795 -119.7793,171 -13.19,18.459 -26.0927,37.1361 -39.0876,55.7334 -5.7921,8.2891 -15.1792,18.0727 -17.9993,27.8666 -4.9668,17.2499 -0.646,41.5695 -0.646,59.5334 m -150.7333,-1235.00007 -241.0576,528.20003 -82.3333,179.86664 -42.6757,93.7333 120.3333,-13.7232 247,-28.0768 V 546.73551 390.9355 346.60216 l -1.2667,-21.53333 m 15.2,1.26666 v 562.40003 144.39998 36.7333 l 1.3018,14.2598 24.0315,4.5301 67.1333,7.8737 182.4,20.4132 91.2,9.9232 -24.9423,-57 -49.4,-107.66665 -174.8,-381.26664 -78.5373,-172.26668 -24.0667,-53.2 -14.3203,-29.13334 m -381.2666,815.73331 c 12.3641,26.1362 33.9732,49.576 50.2307,73.4667 36.7668,54.0294 74.3451,107.6433 112.271,160.8667 18.5671,26.056 36.6285,52.4716 55.186,78.5333 7.2166,10.1349 13.7262,24.4417 23.2125,32.5307 6.6912,5.7056 17.2276,1.7678 25.0997,1.6743 23.7399,-0.2824 48.6308,-0.6623 72.2,-3.4433 6.9051,-0.8147 23.1168,2.7563 27.8315,-3.6094 4.0948,-5.5286 1.3019,-20.4788 1.3019,-27.1523 v -73.4666 -281.2001 l -79.8,8.6565 -136.8,15.2001 -100.0667,11.4136 -50.6666,6.5298 m 381.2666,-41.8 v 383.8001 l 92.4666,5.0716 31.4331,-0.04 19.7712,-26.5649 47.7746,-68.4 118.9201,-169.7333 56.9677,-82.3334 c -69.6653,-12.9409 -142.3635,-16.7361 -212.8,-24.2768 -50.7739,-5.4356 -103.5082,-17.1009 -154.5333,-17.5232 m 433.1999,153.2667 127.9334,57.2923 35.4666,15.8821 17.7334,6.867 24.0666,-13.6382 60.8,-38.2931 229.2667,-145.9101 -35.4667,7.0624 -86.1333,20.5383 -262.2,61.8597 -76,18.3666 -35.4667,9.973 m -1374.3331,-117.8 v 1.2667 l 229.2666,145.4233 58.2667,36.9767 25.3333,13.8668 17.7333,-7.1424 39.2667,-17.7334 124.1333,-54.8577 c -14.1871,-8.554 -38.2068,-10.6839 -54.4666,-14.1993 -32.197,-6.9608 -64.2849,-15.1154 -96.2667,-23.0081 -73.7228,-18.1936 -147.7822,-35.0636 -221.6667,-52.5793 -39.3594,-9.331 -81.2707,-24.7197 -121.5999,-28.0133 m -15.2,8.8667 50.1291,87.4 103.3134,178.6 68.4137,119.0667 36.5437,62.0666 14.4064,-57 30.0873,-121.6 11.0793,-45.6 3.1462,-20.1484 -21.9858,-16.3415 -59.5334,-38 -160.8666,-101.6442 -74.7333,-46.7992 m 1896.1998,0 c -76.7128,51.709 -156.204,99.8452 -234.3333,149.3992 -20.2525,12.8453 -40.5123,25.6842 -60.8,38.471 -5.4205,3.4162 -18.5989,8.5055 -20.5492,15.031 -1.62,5.4206 2.2777,14.6786 3.6095,20.0321 3.8818,15.6039 7.4995,31.2647 11.4,46.8667 14.3927,57.5707 35.9426,117.2341 43.5397,176.0667 l 17.5428,-26.6 37.178,-64.6 144.6834,-250.8001 42.9162,-74.7333 14.8129,-29.1333 m -1552.9332,198.8666 v 1.2666 l 193.8,123.7434 55.7333,35.4667 24.0667,13.8385 19,-7.428 40.5333,-18.6872 c -6.999,-18.4921 -21.9279,-35.2154 -32.3958,-51.9334 -25.8754,-41.3244 -52.855,-82.0381 -79.5068,-122.8666 -8.7829,-13.4548 -17.4904,-26.9645 -26.0967,-40.5334 -2.6385,-4.1601 -6.108,-13.0305 -11.5857,-13.9412 -4.2203,-0.7017 -10.0658,3.24 -13.815,4.8977 -11.3872,5.0346 -22.7678,10.0883 -34.2,15.0211 -44.8584,19.3559 -93.072,36.9912 -135.5333,61.1558 m 1212.1999,1.2666 c -10.5764,-10.5978 -31.8781,-16.0849 -45.6,-22.0709 -31.7684,-13.8587 -63.2944,-28.334 -95,-42.3522 -11.0098,-4.8678 -21.8963,-10.0429 -32.9334,-14.8393 -3.3384,-1.4508 -8.5062,-4.75 -12.1867,-2.9028 -4.0885,2.0518 -6.9017,8.8275 -9.3466,12.4985 -7.2311,10.8573 -14.0804,21.9674 -21.1434,32.9334 -25.0523,38.8956 -49.9184,78.0181 -75.5455,116.5333 -7.8038,11.7284 -15.6311,23.5264 -23.1068,35.4667 -2.3062,3.6834 -7.4069,9.305 -6.8426,13.9324 0.6076,4.9849 6.7095,8.5574 10.105,11.6149 10.0945,9.0893 22.8447,26.0383 35.4667,31.093 6.416,2.5694 13.9744,-4.8232 19,-7.9694 16.5044,-10.3321 32.8628,-20.9068 49.4,-31.181 69.6556,-43.2755 139.7552,-86.8987 207.7333,-132.7566 m -1223.5999,10.1334 c -17.309,61.45 -30.7776,124.2166 -46.074,186.2 l -11.399,45.6 c -0.98,3.9198 -4.6307,11.9875 -1.9753,15.7034 3.7049,5.1844 22.9625,4.8168 29.0483,5.6648 28.6883,3.9974 57.3751,8.3091 86.1333,11.7616 46.1087,5.5357 91.9157,13.6823 138.0667,18.8671 10.9836,1.234 21.9956,2.8866 32.9333,4.4704 3.7334,0.5406 9.9377,2.5789 13.3889,0.4476 4.4272,-2.7342 5.8215,-12.9641 7.2325,-17.6483 4.9627,-16.4736 10.2648,-32.8673 15.0242,-49.4 3.3556,-11.6568 14.3982,-32.3352 12.3382,-44.2824 -1.1151,-6.467 -11.3887,-10.4259 -16.3171,-13.5943 -16.4451,-10.5721 -33.0051,-20.9722 -49.4,-31.6217 -43.6163,-28.3311 -87.9836,-55.5194 -131.7333,-83.645 -25.0872,-16.1278 -50.3056,-35.7715 -77.2667,-48.5232 m 995.5999,290.0666 177.3333,-24.4233 122.8667,-16.11 -17.8937,-76 -42.9063,-172.2667 c -21.9317,5.151 -45.5906,27.1424 -64.6,39.1993 -48.6107,30.8317 -97.6725,61.1749 -145.6667,92.9553 -15.8069,10.4668 -32.0945,20.2736 -48.1333,30.3823 -4.8117,3.0326 -14.8274,6.9551 -16.8548,12.6757 -2.7096,7.6456 5.5445,22.6563 7.9881,29.9874 9.1535,27.4607 16.1568,57.1828 27.8667,83.6 m -235.6,-6.3333 44.3333,-27.3301 131.7334,-82.8699 c -5.9143,-12.6741 -22.5021,-23.3928 -32.9334,-32.5717 -3.2951,-2.8996 -8.025,-8.7187 -12.6666,-9.0845 -8.8947,-0.7011 -24.6288,15.4757 -31.6667,20.4913 -22.761,16.2208 -45.6615,32.2424 -68.4,48.4978 -8.3802,5.991 -23.9524,13.2447 -29.0981,22.3007 -2.8156,4.9552 -1.3019,13.2587 -1.3019,18.7664 v 41.8 M 5998.559,1504.3355 c 0,12.0858 1.0551,24.7254 -0.3617,36.7334 -0.8654,7.3346 -3.3009,19.6924 0.3968,26.4817 5.1044,9.3716 22.7688,16.1566 31.6315,21.7151 18.9392,11.8785 38.051,23.4784 57,35.3396 10.2895,6.4408 21.3574,15.3747 32.9334,19.0636 v -144.4 l -121.6,5.0666 m 135.5333,-5.0666 v 107.6666 c 0,12.2662 -4.2367,33.9808 0.7643,45.1836 3.8812,8.6946 22.9943,15.7966 30.9024,20.7467 28.578,17.8885 57.7176,41.0496 88.6666,54.4031 l 1.2667,-167.2 v -40.5334 l -2.031,-13.8982 -34.7024,-2.5675 -84.8666,-3.8009 m -324.2666,29.1333 219.1333,138.1341 386.3333,243.67 196.3333,123.6633 59.5333,37.9326 38,22.8 c -1.8428,-23.3484 -4.1685,-56.1571 -17.6268,-76 -10.0229,-14.7779 -29.6513,-23.0412 -44.4399,-32.2041 -33.7021,-20.8818 -67.9808,-40.9751 -101.3333,-62.4059 -165.1699,-106.1304 -333.4821,-208.8075 -501.5999,-310.218 -42.977,-25.9242 -85.3263,-53.0391 -127.9334,-79.5752 l -35.4666,-22.1999 c -4.7001,-2.9479 -10.7743,-8.3962 -16.4667,-8.8805 -5.1113,-0.4347 -10.6845,3.7755 -15.2,5.746 -12.4736,5.4431 -28.7932,10.8596 -39.2666,19.5376 m -11.4,10.1333 c -11.1409,25.8871 -17.5504,55.3199 -25.6882,82.3334 -2.086,6.9249 -9.665,21.9247 -6.8298,28.8987 1.8242,4.487 8.432,7.0553 12.2513,9.5362 10.5213,6.8342 21.0333,13.7118 31.6667,20.3694 40.7021,25.4834 80.8361,51.8744 121.5999,77.2655 151.1758,94.1651 302.8372,188.2748 452.2,285.2952 50.6476,32.8989 102.1004,64.6744 153.2667,96.7652 12.2552,7.6864 24.6355,15.2416 36.7333,23.1723 3.5849,2.3501 10.5022,5.7741 9.9103,10.9768 -0.9261,8.1415 -9.0177,6.2808 -13.7103,3.3456 -10.7487,-6.7234 -30.0756,-25.553 -43.0667,-20.0967 -61.3237,25.7565 -122.4866,51.9667 -183.6666,78.0721 l -48.1334,20.4661 c -6.3847,2.7243 -16.2722,4.8129 -20.2666,10.6669 28.463,6.5882 55.9097,20.6243 83.6,29.9788 8.8561,2.9918 19.7545,9.5919 29.1333,9.8724 8.5934,0.257 18.8964,-6.8387 26.6,-10.1804 19.4295,-8.4278 38.7969,-17.0056 58.2667,-25.3372 31.3818,-13.4291 62.5161,-27.4417 93.7333,-41.2438 17.1052,-7.5627 37.9667,-13.7874 53.2,-24.6971 19.0587,-13.6494 35.5534,-36.1131 51.0283,-53.6593 11.1625,-12.6567 27.9596,-25.1197 35.105,-40.5334 l -600.3999,-378.8007 -207.7334,-130.9369 -60.7999,-38.3391 -38,-23.19 m 657.3999,0 c -14.4388,5.4727 -27.5194,17.0077 -40.5333,25.2659 -29.1065,18.4702 -58.0957,37.1062 -87.4,55.2632 -13.5524,8.3971 -27.2382,16.646 -40.5334,25.4497 -4.9101,3.2514 -12.0833,6.2361 -15.7023,10.971 -3.5762,4.6787 -2.031,13.0447 -2.031,18.5836 0,14.7743 0.1708,29.5601 0,44.3333 -0.074,6.2089 -3.3093,14.5221 1.6742,19.4956 6.507,6.4938 30.8764,24.2411 40.1307,23.4186 12.4397,-1.1055 30.0254,-17.3873 40.5333,-23.9777 32.0362,-20.0928 64.2146,-39.9419 96.2667,-60.0075 10.1567,-6.3583 20.2127,-12.8783 30.4,-19.1914 3.4782,-2.1554 9.3073,-4.3701 10.9847,-8.4035 2.8985,-6.9701 -5.3962,-23.1719 -7.6206,-30.1341 -8.372,-26.2034 -22.1462,-53.8627 -26.1641,-81.0667 m -911.9999,534.5334 100.0666,39.0135 178.6,70.9334 467.4,185.4434 247,97.2764 c -4.338,-25.2075 -20.67,-51.5706 -31.2757,-74.7334 -4.3991,-9.6077 -7.9236,-23.9055 -15.8608,-31.1681 -13.3289,-12.1963 -40.0078,-16.3167 -56.7302,-22.5693 -44.9815,-16.8189 -90.5262,-32.147 -135.5333,-48.9261 -150.9684,-56.283 -300.7028,-115.5183 -450.9333,-173.7092 -44.9163,-17.3981 -89.5418,-35.5763 -134.2667,-53.4668 -17.1264,-6.8509 -45.367,-12.3244 -59.2391,-24.3825 -8.6682,-7.5344 4.1015,-14.3764 9.8391,-17.9346 19.0439,-11.8101 38.0163,-23.7401 57,-35.6465 68.4312,-42.9192 137.7525,-84.8149 205.2,-129.2597 15.4871,-10.2052 31.4232,-19.7041 46.8667,-29.9816 5.2315,-3.4815 14.9423,-7.549 11.8965,-15.5049 -2.8175,-7.3594 -15.6866,-12.4018 -22.0299,-16.3406 -7.0613,-4.3848 -17.9575,-14.737 -26.6,-14.7476 -8.1008,-0.01 -18.5109,9.1312 -25.3333,13.0479 -20.8475,11.9683 -41.2163,24.7634 -62.0667,36.7334 -53.7974,30.8844 -106.97,62.8586 -160.8666,93.5671 -32.523,18.5306 -72.8417,35.2411 -99.7001,61.6982 -16.0103,15.7712 -23.656,39.9251 -32.0469,60.2576 -4.0705,9.8635 -9.7938,19.7682 -11.3863,30.4 m 454.7333,-255.8667 1.2666,250.8 0.7292,72.2 1.8393,19.4447 31.6315,13.732 86.1334,32.69 v -225.4667 -62.0667 c 0,-7.0033 2.2508,-18.856 -1.3019,-25.0997 -5.3077,-9.328 -22.7319,-16.1897 -31.6315,-21.8343 -27.7015,-17.5701 -57.8808,-43.1289 -88.6666,-54.3993 m -15.2,15.2 -102.6,65.9341 -207.7333,130.3993 v 1.2666 c 29.9473,14.1736 61.707,25.1896 92.4666,37.4938 10.0443,4.0179 27.1151,14.977 38,13.6753 7.8752,-0.9418 16.2283,-8.8431 22.8,-12.9257 18.3643,-11.4091 36.3638,-23.4559 54.4667,-35.2742 24.3866,-15.9204 49.148,-31.2737 73.4666,-47.2986 8.2168,-5.4145 23.7715,-11.2785 29.0982,-19.6598 4.5232,-7.117 1.3018,-23.9993 1.3018,-32.2775 v -69.6666 c 0,-9.4745 2.4108,-22.903 -1.2666,-31.6667 m 150.7333,70.9333 v 225.4667 59.5334 c 0,5.8623 -2.1512,17.1541 1.3018,22.1676 5.0626,7.3502 24.6994,11.1275 32.8982,14.1621 28.3406,10.4893 56.2385,22.3852 84.8666,32.0703 l 1.2667,-202.6667 v -53.2 l -1.3018,-22.5664 -30.3649,-20.9362 -59.5333,-37.5641 -29.1333,-16.4667 m -312.8666,184.9334 v 1.2667 l 100.0666,39.8041 64.6,24.7959 v -171 l -51.9333,32.3958 -112.7333,72.7375 m 447.1332,-101.3333 v 152 c 47.0476,-19.5622 95.2448,-46.0893 144.4,-59.5334 -6.709,-11.9112 -28.973,-20.9317 -40.5333,-28.11 -33.5829,-20.8532 -67.6031,-48.7101 -103.8667,-64.3566 m -1.2666,263.4666 c 28.1793,-5.0076 58.5476,-23.7552 84.8666,-35.1108 55.0894,-23.7688 110.4282,-47.2508 165.9334,-70.0225 v -2.5333 c -21.1086,-9.8668 -41.2513,-24.867 -60.8,-37.5651 -7.7861,-5.0575 -18.6139,-14.723 -27.8667,-16.2527 -10.3721,-1.7146 -27.2704,9.4436 -36.7333,13.474 -29.0047,12.3537 -58.162,24.5001 -87.4,36.2896 -8.3391,3.3627 -33.1963,8.9659 -37.2357,17.2506 -3.3016,6.7715 -0.7643,19.8779 -0.7643,27.3369 v 67.1333 m -719.4715,-160.8666 c 2.1526,12.1132 9.2801,24.1812 14.1239,35.4666 9.2714,21.6014 18.2605,43.5033 28.6339,64.6 5.8306,11.8579 12.1435,26.5134 23.1137,34.4678 19.7747,14.3385 49.3038,20.0877 72.1951,28.0348 46.5504,16.1607 92.7813,33.2388 139.3334,49.4 144.8026,50.27 288.7916,103.0915 433.1999,154.4874 l 131.7333,46.8667 c 14.2363,5.0666 42.3969,9.1723 52.7779,20.3752 6.0188,6.4954 -2.1667,11.6223 -8.4445,9.9965 -28.5347,-7.3902 -58.0989,-27.283 -87.4,-30.0374 -18.0245,-1.6945 -44.9568,13.4169 -62.0667,19.1201 -5.5741,1.8581 -16.7932,3.3779 -20.2315,8.5529 -2.4944,3.7546 -1.3018,10.3865 -1.3018,14.6694 0,11.6953 -6.3211,30.687 -2.8206,41.5303 1.8039,5.5882 11.9342,7.7131 16.7539,9.6426 15.7096,6.2891 31.1815,13.1624 46.8667,19.5062 7.2989,2.9522 16.0754,8.7305 24.0666,8.8698 10.7981,0.188 24.0287,-6.0852 34.2,-9.46 20.1449,-6.684 40.5801,-12.5259 60.8,-18.9864 11.7626,-3.7582 31.8502,-5.9905 41.3055,-13.9928 7.9181,-6.7014 12.687,-21.6025 17.274,-30.7764 11.4043,-22.8086 28.085,-46.3941 35.1539,-70.9333 -231.5506,-89.8084 -462.2372,-181.9877 -692.8667,-274.1687 -98.2301,-39.2621 -196.1939,-83.3313 -296.3999,-117.2313 m 177.3333,369.8666 c 47.3616,25.2234 102.1469,41.3643 152,61.3063 l 307.8,122.9293 c 53.9483,21.5799 108.1798,42.4525 162.1333,64.0311 27.0859,10.8329 57.3998,27.9888 86.1333,32.9334 -4.908,-17.9817 -12.1502,-35.771 -18.7566,-53.2 -2.4833,-6.5512 -4.3067,-15.8297 -9.6086,-20.7261 -9.9654,-9.2034 -27.7218,-13.1066 -40.0348,-18.351 -30.2984,-12.9048 -60.9053,-25.0948 -91.2,-38 -106.8018,-45.4965 -214.2109,-89.9213 -321.7333,-133.692 -42.7143,-17.3884 -85.3033,-35.0912 -127.9333,-52.684 -9.9102,-4.0898 -21.2019,-7.3743 -30.3756,-12.951 -3.2736,-1.9902 -6.9919,-5.5188 -4.9816,-9.7061 3.6143,-7.5286 13.7833,-1.601 18.8905,0.5765 15.0441,6.4146 33.1991,17.6813 49.4,20.0125 9.9698,1.4347 23.9311,-8.0504 32.9333,-11.8789 18.9448,-8.0569 37.9151,-16.0937 57,-23.8124 10.1815,-4.1179 22.9028,-7.5549 31.6667,-14.1876 -26.5191,-13.9741 -58.0933,-20.8035 -86.1333,-31.4233 -11.2643,-4.266 -28.3456,-13.8394 -40.5334,-12.5895 -19.859,2.0369 -43.4725,17.0747 -62.0666,24.5066 -12.3614,4.9408 -38.7466,9.6044 -47.198,20.0047 -4.8329,5.9474 -4.8494,18.7208 -6.1047,26.1015 -3.4545,20.3122 -7.3746,40.5728 -11.2973,60.8 m 276.1333,-79.8 v 102.6 l 82.3333,34.0105 36.7334,14.1229 v -77.2667 c 0,-7.6083 2.9934,-23.377 -1.3019,-29.8703 -4.8622,-7.3504 -23.6312,-10.3377 -31.6315,-13.2638 -28.5732,-10.4503 -57.1973,-20.917 -86.1333,-30.3326 m -121.6,50.6667 v 1.2667 l 70.9333,29.3875 36.7334,13.6791 v -88.6666 l -38,14.4357 -69.6667,29.8976 m 254.6,-2.5333 v 78.5333 l 1.3018,29.9015 30.3649,14.4182 79.7999,32.947 c 7.593,-25.6873 5.0564,-59.4608 5.0667,-86.1334 0,-6.8567 2.9289,-22.6002 -1.3018,-28.2439 -4.8451,-6.4632 -21.6873,-8.9808 -29.0982,-11.7519 -26.9685,-10.0836 -57.6751,-25.468 -86.1333,-29.6708 m 130.4666,46.8666 v 39.2667 l 58.2667,-19 c -14.3561,-9.0338 -41.3779,-18.7829 -58.2667,-20.2667 m -534.5332,3.8 c 10.7103,25.7249 23.4505,50.6788 35.0757,76 5.0048,10.9012 9.6635,27.1369 19.5092,34.6447 11.488,8.7602 29.5902,12.4515 42.9484,17.7949 30.7909,12.3169 61.475,24.9654 92.4666,36.7646 90.9298,34.6193 180.9404,72.2093 271.0667,108.8981 33.3,13.556 66.6968,26.8972 100.0666,40.2841 10.1934,4.0894 31.706,7.6334 38.4965,16.5616 8.1052,10.6568 -29.0645,30.4411 -36.9355,25.1935 -12.0683,-8.0456 11.333,-16.6281 16.1724,-19.2081 -13.9609,-8.8268 -32.7466,-13.3563 -48.1334,-19.5062 -6.3438,-2.5355 -14.5599,-7.6365 -21.5333,-7.2747 -17.4631,0.9064 -40.6844,14.9356 -57,21.461 -8.4343,3.3735 -34.6383,8.6276 -38.5023,17.0678 -3.7518,8.1953 -0.7643,23.6254 -0.7643,32.5854 0,24.9632 -0.7533,49.859 -1.2667,74.7334 19.4053,-2.9088 40.2414,-15.9397 58.2666,-23.7111 40.0264,-17.2564 79.972,-35.081 120.3334,-51.5245 18.2524,-7.4364 36.5346,-15.0914 54.4666,-23.2722 7.5997,-3.4669 17.5164,-6.239 23.5868,-12.1867 15.4367,-15.1252 27.6727,-46.7653 35.9466,-66.6389 -61.6752,-20.8647 -121.8681,-47.9617 -182.4,-71.9419 -100.0923,-39.6525 -200.6703,-78.2713 -300.2,-119.3384 -48.7551,-20.1169 -97.9632,-39.1704 -146.9333,-58.7593 -23.3622,-9.3452 -49.849,-24.8997 -74.7333,-28.6271 m 143.1333,162.1334 -35.4667,62.0667 c 67.8542,30.078 141.5965,50.7192 211.5333,75.61 19.8257,7.056 39.8263,13.8254 59.5334,21.1941 9.3332,3.4898 21.5455,10.5947 31.6666,10.3631 7.4084,-0.1695 15.9173,-5.2556 22.8,-7.8298 18.1934,-6.8037 36.862,-16.3321 55.7333,-20.8041 l -25.3333,-12.4771 -67.1333,-27.2958 -253.3333,-100.8271 m -35.4667,78.5333 c 2.8512,21.1555 11.2092,42.8443 17.1958,63.3334 2.4458,8.3706 3.6169,20.6198 9.0279,27.6007 9.4735,12.222 32.6707,18.6369 45.9763,26.1367 41.4312,23.353 84.1541,45.584 126.6667,66.9085 21.7746,10.9226 42.8543,23.2234 64.6,34.201 6.5504,3.307 16.3388,11.7745 23.664,6.0071 6.4068,-5.0444 2.6627,-23.0091 2.9858,-30.3874 1.274,-29.0934 -2.8262,-61.3331 2.4835,-89.9333 l -60.8,-22.41 -106.4,-38 -79.8,-28.3241 -45.6,-15.1326"
       id="path3-8" />
  </g>
</svg>
